<svg xmlns="http://www.w3.org/2000/svg" viewBox="0 0 23.31 13.56"><defs><style>.cls-1{fill:#37668b;}</style></defs><title>Asset 1</title><g id="Layer_2" data-name="Layer 2"><g id="Layer_1-2" data-name="Layer 1"><path class="cls-1" d="M19,2.65,16.74,4.09a9.25,9.25,0,0,0-5-1.54,9.14,9.14,0,0,0-9.14,8.81,2.36,2.36,0,0,1-.2.94,1.16,1.16,0,0,1-1.38.6,1.24,1.24,0,0,1-1-1.29,11.16,11.16,0,0,1,1.41-5.5A11.69,11.69,0,0,1,18.82,2.44,2.25,2.25,0,0,1,19,2.65Z"/><path class="cls-1" d="M23.13,1.49C19.76,5.25,16.39,9,13,12.77a2.09,2.09,0,0,1-3.26,0,2.14,2.14,0,0,1,.52-3.23C14.17,7,18.09,4.51,22,2l1-.65Z"/><path class="cls-1" d="M21.31,5.09a11.31,11.31,0,0,1,2,6.73,1.26,1.26,0,0,1-2.49,0,10.2,10.2,0,0,0-1.12-4.52.59.59,0,0,1,.11-.51C20.26,6.26,20.76,5.71,21.31,5.09Z"/><path class="cls-1" d="M4.95,10.63A1.08,1.08,0,0,1,6,11.81a1.1,1.1,0,0,1-1.13,1.08,1.11,1.11,0,0,1-1.13-1.16A1.08,1.08,0,0,1,4.95,10.63Z"/><path class="cls-1" d="M12.73,5a1.11,1.11,0,0,1-1.14,1.16,1.14,1.14,0,0,1-1.13-1.12,1.1,1.1,0,0,1,1.09-1.15A1.08,1.08,0,0,1,12.73,5Z"/><path class="cls-1" d="M6.84,5.9A1.08,1.08,0,0,1,8,7a1.13,1.13,0,0,1-2.26.06A1.08,1.08,0,0,1,6.84,5.9Z"/><path class="cls-1" d="M19.44,11.74a1.12,1.12,0,0,1-1.1,1.15,1.16,1.16,0,0,1-1.2-1.12,1.14,1.14,0,0,1,1.1-1.14A1.12,1.12,0,0,1,19.44,11.74Z"/></g></g></svg>